<svg version="1.2" xmlns="http://www.w3.org/2000/svg" viewBox="0 0 1024 1024" width="1024" height="1024"><style>.a{opacity:.04;fill:#020105}.b{opacity:1;fill:#4515bb}</style><path class="a" d="m72 519v447h880v-894h-880z"/><path class="b" d="m138.5 74.7c-3.8 0.8-10.4 2.9-14.5 4.6-4.1 1.7-10.7 5.2-14.5 7.8-3.8 2.6-9.9 7.8-13.5 11.5-3.6 3.8-8.4 10.1-10.7 13.9-2.3 3.8-5.3 10.4-6.7 14.5-1.4 4.1-3 10.4-3.5 14-0.7 4.2-1.1 36.4-1.1 90.5v84c110.9 111.6 165.9 166.9 193.8 195 27.9 28 60.8 61.4 73.2 74 12.3 12.6 34.1 34.9 48.4 49.4 14.4 14.5 24.6 25.5 22.7 24.5-1.8-1-4.1-2.4-5-2.9-0.9-0.5-7.5-4.6-14.6-8.9-7.2-4.3-18.8-11.5-26-16-7.1-4.5-13.7-8.6-14.7-9.1-0.9-0.5-7.9-4.8-15.5-9.4-7.6-4.6-39.2-24.3-70.3-43.6-31.1-19.3-62.3-38.7-69.4-43.1-7.1-4.3-19.8-12.2-28.2-17.4-8.5-5.2-21.1-13.1-28.1-17.4-7.1-4.4-24.6-15.3-39.1-24.3-14.4-9-26.4-16.3-26.7-16.3-0.3 0-0.4 94.2-0.3 209.3l0.3 209.2c3.5 12.4 6.3 19.6 8.5 24 2.2 4.4 6.4 10.9 9.3 14.5 2.9 3.6 8.7 9.1 12.8 12.2 4.1 3.1 10.8 7.3 14.9 9.2 4.1 2 10.6 4.6 14.5 5.8 6.9 2.2 7.9 2.2 81.7 2.5l74.8 0.3c6.6-5.8 19.7-18.1 33.5-31 13.7-12.9 34.5-32.4 46-43.5 11.6-11 28-26.5 36.4-34.5 8.5-8 16.4-15.4 17.5-16.6 1.2-1.1 5.9-5.6 10.6-9.9 4.7-4.3 13.9-13.1 20.5-19.4 6.7-6.4 15-14.3 18.5-17.6 3.6-3.3 15.5-14.6 26.5-25.1 11-10.4 30.4-28.9 43-40.9 12.6-12 27.5-26.2 33-31.4 5.5-5.2 13.4-12.7 17.5-16.6 4.1-3.9 16.5-15.6 27.5-26 11-10.4 24-22.8 29-27.5 5-4.7 11.9-11.3 15.5-14.6 3.6-3.2 8-7.3 9.9-8.9l3.4-3c-3.7 6.2-26.4 40.4-52.8 80-26.4 39.6-54.8 82.4-63 95-8.3 12.6-18.1 27.7-21.8 33.5-3.8 5.8-11.8 18.1-17.9 27.5-6.1 9.4-21 32.5-33.1 51.5-12.1 19-28.2 44.3-35.9 56.3-7.6 11.9-13.8 21.9-13.8 22.2 0 0.3 96.4 0.5 214.3 0.5 145.2 0 216.9-0.3 222.7-1.1 4.7-0.5 11.9-2.1 16-3.5 4.1-1.4 10.9-4.4 15-6.7 4.9-2.8 10.6-7.3 16.6-13.2 5.5-5.4 10.7-11.8 13.2-16 2.3-3.9 5.1-9.7 6.2-13 1.2-3.3 2.8-9.6 3.6-14 1.1-6.5 1.4-23.4 1.4-92v-84c-108.2-108.5-162.8-163.4-191.1-192-28.3-28.6-60.3-61-71-72-10.7-11-25.3-26.1-32.4-33.5-7.1-7.4-18.2-18.9-24.5-25.5-6.4-6.6-16.5-17.2-22.5-23.5-6-6.3-11.2-11.7-11.5-12-0.3-0.3-2.1-2.3-4-4.4l-3.5-3.9c6.6 3.7 17.4 10.5 28.3 17.4 10.8 7 29.4 18.8 41.2 26.2 11.8 7.5 24 15.1 27 17 3 1.9 14 8.7 24.5 15.2 10.5 6.5 32.7 20.4 49.5 30.8 16.8 10.4 34.5 21.5 39.5 24.7 5 3.1 18.9 11.8 31 19.2 12.1 7.4 24.7 15.2 28 17.3 3.3 2.1 8.2 5.2 11 7 2.7 1.8 10.8 6.9 18 11.2 7.1 4.4 21.5 13.3 32 19.8 10.5 6.4 21.6 13.4 24.7 15.6l5.8 3.9-0.5-413.5c-3.6-11.6-6.3-18.1-8.3-22-2-3.8-5.9-9.7-8.5-13-2.7-3.3-7.4-8.2-10.5-10.9-3.2-2.7-8.6-6.6-12.2-8.7-3.6-2.1-10.8-5.3-16-7.1l-9.5-3.3-192-0.5c-7 6.4-13.7 12.9-19.5 18.4-5.8 5.6-15 14.4-20.5 19.6-5.5 5.2-20.1 19.2-32.5 31-12.4 11.8-31.3 30-42 40.5-10.7 10.5-26.3 25.6-34.5 33.5-8.3 8-24 23.3-35 34-11 10.7-36.2 35.5-56 55-19.8 19.5-47.5 46.8-61.6 60.5-14.1 13.8-27.9 27.3-30.9 30-3.7 3.5-4.9 4.3-4 2.5 0.7-1.4 2.9-5 4.8-8 1.9-3 5.5-8.9 8-13 2.5-4.1 9.1-14.9 14.7-24 5.7-9.1 16-25.9 23-37.5 7.1-11.6 27.1-44.2 44.5-72.5 17.5-28.3 38.2-61.8 46-74.5 7.8-12.6 19.7-31.8 26.5-42.5 6.7-10.7 14.4-23.1 17-27.5 2.7-4.4 7.2-11.7 10.2-16.2 2.9-4.6 5.3-8.5 5.3-8.8 0-0.3-92.4-0.5-205.3-0.4-178.2 0.1-206.1 0.3-212.2 1.6z"/></svg>