<svg version="1.2" xmlns="http://www.w3.org/2000/svg" viewBox="0 0 300 300" width="300" height="300"><style>.a{fill:#fff}</style><path fill-rule="evenodd" class="a" d="m0 0h300v300h-300zm32.3 24.5c-2.4 1.4-5.4 4.2-6.8 6.3-1.4 2-3.2 6-4 8.7-1.2 3.9-1.5 10.5-1.5 29.5v24.5c78.3 83.7 94.8 102 94.5 103-0.4 1.1-12.8-6.7-47-29.5-25.6-17.1-46.7-31-47-31-0.3 0-0.5 26.6-0.5 59 0 41.7 0.3 60.5 1.2 64.3 0.6 2.8 2.5 7.2 4.2 9.6 1.9 2.7 5.2 5.6 8.6 7.5l5.5 3.1 48 0.7c51.9-48.5 76.1-71.1 87.3-81.6 13.7-12.9 20.6-18.8 21.3-18.1 0.7 0.7-9.5 16.9-31.5 50l-32.6 49c92.6 0.5 121.8 0.3 124.5 0 3-0.3 7.2-1.8 10.5-3.8 3.8-2.2 6.4-4.7 8.5-8.2 1.7-2.8 3.4-7.3 3.8-10 0.4-2.8 0.7-14.4 0.7-26v-21c-77.5-82.9-99.7-107.4-99.3-107.8 0.5-0.5 22.4 13.5 48.8 31 26.4 17.6 48.6 32.2 49.3 32.6 0.9 0.6 1.1-12.2 1-62.6l-0.3-63.3c-5.1-10.1-7.4-12.8-10.5-15-2.5-1.7-6.9-3.6-9.7-4.2-3.4-0.8-14.4-1.2-30-1.1h-24.8c-76.7 72-99.6 92.9-100.2 92.9-0.7 0-1.3-0.5-1.3-1 0-0.6 13.3-20.9 29.6-45.3 16.3-24.3 29.8-44.8 30-45.5 0.3-0.9-11.8-1.2-58.3-1.1-32.4 0.1-60.8 0.5-63.3 1-2.5 0.5-6.4 2.1-8.7 3.4z"/></svg>